<?xml version="1.0" encoding="UTF-8"?>
<svg version="1.1" xmlns="http://www.w3.org/2000/svg" width="600" height="600">
<path d="M0 0 C1.9189477 2.87842155 3.22610456 5.59715064 4.6171875 8.7578125 C5.39461304 10.51339478 5.39461304 10.51339478 6.18774414 12.30444336 C6.46232452 12.92672821 6.73690491 13.54901306 7.01980591 14.19015503 C16.39394277 35.39879263 26.28474333 56.24231451 37.60351562 76.4921875 C38.91166638 78.84137011 40.20160157 81.19938759 41.484375 83.5625 C52.5022268 103.78997308 64.77354497 123.15014977 78 142 C78.56074219 142.80308594 79.12148437 143.60617188 79.69921875 144.43359375 C87.14206167 155.05864979 95.06397719 165.17140828 103.40917969 175.10058594 C105.75526391 177.90177305 108.06517822 180.73133913 110.375 183.5625 C111.08398438 184.43003906 111.79296875 185.29757813 112.5234375 186.19140625 C113.01070312 186.78824219 113.49796875 187.38507813 114 188 C113.59910156 187.319375 113.19820312 186.63875 112.78515625 185.9375 C111.21514739 183.26029668 109.65531304 180.57742 108.10009766 177.89160156 C107.34865193 176.59950182 106.59291923 175.30988819 105.83349609 174.02246094 C92.87533853 152.03958899 92.87533853 152.03958899 95 139 C96.25 136.69921875 96.25 136.69921875 98 135 C100.0859375 134.57421875 100.0859375 134.57421875 102.375 134.6875 C103.12523437 134.71199219 103.87546875 134.73648438 104.6484375 134.76171875 C107.14547862 135.01474119 109.54858012 135.46727094 112 136 C111.57847656 134.75863281 111.15695313 133.51726562 110.72265625 132.23828125 C110.16911049 130.59640822 109.61573396 128.95447812 109.0625 127.3125 C108.78470703 126.49587891 108.50691406 125.67925781 108.22070312 124.83789062 C106.17624035 118.75376648 104.84715742 113.33596836 104.75 106.875 C104.71132813 105.32425781 104.71132813 105.32425781 104.671875 103.7421875 C105 101 105 101 106.515625 99.1328125 C107.25039063 98.57207031 107.25039063 98.57207031 108 98 C114.31467198 102.87570912 120.29761271 107.98594581 126.06347656 113.4934082 C128.59718277 116.18720649 128.59718277 116.18720649 132 117 C131.49339844 115.49373047 131.49339844 115.49373047 130.9765625 113.95703125 C126.1898568 99.41274131 121.82491592 83.08246429 127 68 C127.97213642 66.97289203 128.9695148 65.96855576 130 65 C134.34249599 70.58828614 138.2171785 76.3582961 141.9375 82.375 C146.11051246 89.05921154 150.35179005 95.63326172 155 102 C154.7834375 100.52466797 154.7834375 100.52466797 154.5625 99.01953125 C151.9588489 80.09272352 149.88205449 58.09583896 160 41 C160.99 41 161.98 41 163 41 C163.39268066 42.04752441 163.78536133 43.09504883 164.18994141 44.17431641 C165.67396426 48.13046966 167.16231548 52.08498359 168.65185547 56.0390625 C169.29102363 57.73752441 169.92907974 59.4364053 170.56591797 61.13574219 C174.46583202 71.53960738 178.50511098 81.83700801 183 92 C183.03963867 91.33170166 183.07927734 90.66340332 183.12011719 89.97485352 C185.89770298 45.25342041 185.89770298 45.25342041 199 30 C201.15234375 28.7890625 201.15234375 28.7890625 203 28 C203.27096029 29.89672201 203.5418953 31.79344762 203.81274414 33.69018555 C204.06807819 35.47685849 204.32379009 37.26347747 204.57983398 39.05004883 C205.36611198 44.54143589 206.14636911 50.03361207 206.91770935 55.52711487 C207.35469742 58.63650124 207.79402232 61.74555561 208.23355103 64.85458374 C208.45102843 66.39694018 208.66749688 67.93943925 208.88290405 69.48208618 C210.03129443 77.70233682 211.21245198 85.88842714 213 94 C213.20044922 93.35675781 213.40089844 92.71351562 213.60742188 92.05078125 C218.10377495 77.75625286 222.62235388 63.56646917 231 51 C231.99 51 232.98 51 234 51 C234.0960981 52.45956871 234.0960981 52.45956871 234.19413757 53.94862366 C238.04008999 115.61445135 238.04008999 115.61445135 244.20332336 177.0776825 C244.70975425 181.23530174 245.12357276 185.38505264 245.44335938 189.56152344 C245.55662567 190.94541763 245.55662567 190.94541763 245.67218018 192.35726929 C245.81467138 194.13717511 245.9419841 195.9183805 246.05194092 197.70059204 C246.22907396 200.3729042 246.22907396 200.3729042 247 204 C248.31345386 204.70502566 249.64834587 205.37130824 251 206 C252.22254488 208.42416601 253.17311979 210.64445638 254.0625 213.1875 C254.31854004 213.8985791 254.57458008 214.6096582 254.83837891 215.34228516 C261.41639193 234.28076568 261.03718636 249.2562787 253.5 267.6875 C248.4757696 280.07354184 246.74434079 292.67886656 246 306 C238.35526412 309.03153319 231.185766 309.6623226 223 310 C237.71605393 312.62938139 249.64721792 308.80943923 263.1875 303.0625 C285.54754178 293.95925044 310.62219899 288.6136809 334 298 C340.43496864 300.7201981 345.02326099 303.92606425 349.875 308.9375 C355.5938217 314.42625416 361.65089632 316.26273065 369.14428711 318.52270508 C379.00598916 321.50620326 388.59690682 325.59690682 396 333 C396 333.66 396 334.32 396 335 C378.99052995 335.70802178 362.02441031 336.14789546 345 336 C347.97 336.33 350.94 336.66 354 337 C352.55237643 339.89524714 350.553884 340.24111403 347.625 341.5625 C340.89157295 344.84943358 335.58554816 349.0532682 330 354 C329.12085938 354.75796875 328.24171875 355.5159375 327.3359375 356.296875 C319.43342751 363.22052424 312.84823831 371.08957822 306.1875 379.1875 C305.5793042 379.92581055 304.9711084 380.66412109 304.34448242 381.42480469 C300.7511703 385.80668471 297.23852317 390.23647191 293.8125 394.75 C275.90321891 418.16537074 255.78376343 437.52259154 230 452 C229.37109863 452.36158203 228.74219727 452.72316406 228.09423828 453.09570312 C213.55208043 461.42229086 197.9124697 467.78837761 182 473 C190.91163374 473.28695779 199.62660961 472.76270647 208.5 472 C211.73055107 471.74062482 214.96137912 471.48511498 218.19238281 471.23144531 C220.48385869 471.042548 222.76758884 470.81955942 225.0546875 470.5859375 C235.28691634 469.93589002 245.24528394 473.81307372 254 479 C256.59582532 481.63043633 257 482.28079852 257 486 C281.58129414 473.8882189 303.62384514 453.42924642 319.92578125 431.6328125 C322 429 322 429 324 428 C322.42161616 432.83728225 319.67417384 436.4440285 316.625 440.4375 C315.83077637 441.48550781 315.83077637 441.48550781 315.02050781 442.5546875 C299.86161261 462.36063917 282.76587543 478.15608305 262 492 C262.22816406 492.53367187 262.45632813 493.06734375 262.69140625 493.6171875 C265.54179829 501.00519915 265.52770204 507.1113039 262.625 514.5 C261 517 261 517 258 519 C259.485 513.555 259.485 513.555 261 508 C260.01 508 259.02 508 258 508 C258.020625 506.9275 258.04125 505.855 258.0625 504.75 C258.0142016 501.85209576 257.86844115 499.71387859 257 497 C255.68 497 254.36 497 253 497 C253.0825 498.051875 253.165 499.10375 253.25 500.1875 C252.96474513 504.53763669 251.97550031 505.9315153 249 509 C248.01 508.67 247.02 508.34 246 508 C246.66 507.34 247.32 506.68 248 506 C248 504.68 248 503.36 248 502 C247.41992188 502.19335938 246.83984375 502.38671875 246.2421875 502.5859375 C241.828125 504.05729167 237.4140625 505.52864583 233 507 C233.350625 507.94875 233.70125 508.8975 234.0625 509.875 C235.61931038 515.45921114 235.32254349 521.03414687 232.953125 526.34765625 C230.73178955 530.1252977 229.10278245 532.2504126 225 534 C225.28875 533.484375 225.5775 532.96875 225.875 532.4375 C227.28780027 529.37643275 228.1248517 526.25055082 229 523 C228.34 522.67 227.68 522.34 227 522 C227.0721875 521.38511719 227.144375 520.77023437 227.21875 520.13671875 C227.3115625 519.32847656 227.404375 518.52023437 227.5 517.6875 C227.5928125 516.88699219 227.685625 516.08648438 227.78125 515.26171875 C228.04813463 512.88103445 228.04813463 512.88103445 228 510 C225.93597032 510.48705712 225.93597032 510.48705712 224 512 C223.65458149 514.33157492 223.32205743 516.66508361 223 519 C221.3125 521.4375 221.3125 521.4375 219 523 C215.75 523.25 215.75 523.25 213 523 C213.639375 522.62875 214.27875 522.2575 214.9375 521.875 C217.64294802 519.4155018 217.5443143 517.53995842 218 514 C216.93007813 514.31453125 215.86015625 514.6290625 214.7578125 514.953125 C167.60674542 528.36248236 114.79330395 526.79155455 71 503 C74.38827092 499.41241903 77.60122868 496.28736108 82 494 C87.00390341 494.35062981 90.94456984 495.65990784 95.5 497.6875 C120.29108391 508.11898202 146.42009667 510.46047297 173 511 C173.28875 509.906875 173.5775 508.81375 173.875 507.6875 C175 504 175 504 177 501 C178.91796875 500.04296875 178.91796875 500.04296875 181.1875 499.1875 C186.236037 497.0751073 191.4731213 494.05375739 194 489 C193.22183426 489.02141052 192.44366852 489.04282104 191.641922 489.06488037 C184.30048558 489.26322427 176.95895746 489.4418284 169.61652088 489.59840012 C165.84187728 489.67958447 162.06773094 489.768332 158.29370117 489.87451172 C154.64999916 489.97674399 151.00634103 490.05891587 147.36185265 490.12732697 C145.97306014 490.15689603 144.58440074 490.19363268 143.19599342 490.2377243 C141.24810626 490.29834633 139.29940727 490.33089874 137.35083008 490.36230469 C135.68870232 490.4022757 135.68870232 490.4022757 133.99299622 490.4430542 C130.28494766 489.89415057 128.66098605 488.58330685 126 486 C125.67 485.34 125.34 484.68 125 484 C106.69395031 483.04628395 82.45974724 482.28510955 68.09375 495.1015625 C67.59746094 495.57110352 67.10117188 496.04064453 66.58984375 496.52441406 C64.23674927 498.70839795 61.72571377 500.68061408 59.21923828 502.68457031 C57.18146984 504.31733167 55.16420373 505.97299825 53.1484375 507.6328125 C46.87616654 512.76087821 40.40210603 517.62702088 33.94726562 522.52148438 C26.68690493 528.03411532 19.48309075 533.62003872 12.29418945 539.2253418 C5.59709508 544.44606439 -1.10248978 549.6542727 -7.93359375 554.69921875 C-10.31081342 556.48289058 -12.64588385 558.29691388 -14.97265625 560.14453125 C-15.67052246 560.68964355 -16.36838867 561.23475586 -17.08740234 561.79638672 C-18.44507905 562.85733799 -19.79380701 563.92988648 -21.13134766 565.01611328 C-26.96792305 569.53480039 -32.50024624 571.16934292 -39.875 570.8125 C-43.08898326 569.97686435 -43.87240082 569.3632913 -46 567 C-46.70125 567.433125 -47.4025 567.86625 -48.125 568.3125 C-59.14958278 574.78345076 -66.01542105 573.06922144 -78 570 C-78.33 568.68 -78.66 567.36 -79 566 C-68.19063308 557.8594285 -57.32578516 549.79763607 -46.42333984 541.78222656 C-42.44677482 538.85769254 -38.47353729 535.92864567 -34.5 533 C-32.91668304 531.83331112 -31.33334969 530.66664447 -29.75 529.5 C-28.574375 528.63375 -28.574375 528.63375 -27.375 527.75 C-25 526 -22.625 524.25 -20.25 522.5 C-19.0734082 521.6330249 -19.0734082 521.6330249 -17.87304688 520.74853516 C-16.29625671 519.58670685 -14.71943401 518.4249227 -13.14257812 517.26318359 C-9.08386073 514.27285893 -5.02578257 511.2816727 -0.96875 508.2890625 C7.33453329 502.16540119 15.6414779 496.04818902 24 490 C16.66508694 494.49916913 9.62034957 499.33021969 2.61132812 504.31567383 C-2.20512885 507.74003919 -7.05495759 511.10818938 -11.9375 514.4375 C-18.4713031 518.9007146 -24.88877563 523.51141396 -31.28881836 528.16381836 C-36.77681083 532.14324638 -42.3333693 536.00694966 -47.93896484 539.81835938 C-54.01898936 543.96968436 -59.96917411 548.29443628 -65.88671875 552.67382812 C-69.76278083 555.51228738 -73.51026 558.19880637 -78 560 C-80.75 559 -80.75 559 -83 557 C-83.71537692 555.35365311 -84.38922811 553.6879514 -85 552 C-72.34211245 542.72258924 -59.21896447 534.17965489 -46.0859375 525.59521484 C-31.90829953 516.32430925 -31.90829953 516.32430925 -18.04147339 506.59976196 C-10.90481081 501.44083943 -3.50210607 496.68010161 3.875 491.875 C5.35304174 490.90912521 6.8309072 489.9429806 8.30859375 488.9765625 C11.87038181 486.64794228 15.43449838 484.32292975 19 482 C12.87358848 485.26373788 6.91030777 488.56946214 1.1875 492.5 C-4.9321215 496.65174321 -11.12920599 500.66575657 -17.375 504.625 C-18.29949951 505.21144287 -19.22399902 505.79788574 -20.17651367 506.40209961 C-22.11302663 507.63035317 -24.04963361 508.85845851 -25.98632812 510.08642578 C-31.20620342 513.40086053 -36.41618734 516.73071533 -41.625 520.0625 C-42.66543457 520.72733398 -43.70586914 521.39216797 -44.77783203 522.07714844 C-49.81930745 525.30350338 -54.8481063 528.54697656 -59.8515625 531.83203125 C-61.22127197 532.7300647 -61.22127197 532.7300647 -62.61865234 533.64624023 C-64.32215441 534.76541802 -66.02317422 535.88838707 -67.72119141 537.01586914 C-71.38327548 539.42205866 -74.80737584 541.60804878 -79 543 C-80.47509407 540.65720354 -81.0253031 539.35917441 -80.82836914 536.5637207 C-79.76873567 533.28425973 -78.5546514 532.52204453 -75.68359375 530.66796875 C-74.77593262 530.07161621 -73.86827148 529.47526367 -72.93310547 528.86083984 C-71.96518066 528.2467627 -70.99725586 527.63268555 -70 527 C-69.05656738 526.38463379 -68.11313477 525.76926758 -67.14111328 525.13525391 C-64.12643968 523.17574128 -61.09676263 521.24152538 -58.0625 519.3125 C-56.97001953 518.61552002 -55.87753906 517.91854004 -54.75195312 517.20043945 C-47.40729998 512.51881331 -40.0452604 507.86502852 -32.67529297 503.22338867 C-27.65650173 500.05857395 -22.66393584 496.8559564 -17.6875 493.625 C-4.50896133 485.07186697 8.7449246 476.63764079 22.08178711 468.33349609 C26.08819969 465.83740302 30.08814639 463.33107181 34.08691406 460.82275391 C36.01317869 459.6174663 37.94217983 458.41654001 39.87402344 457.22021484 C53.86311625 448.7602699 53.86311625 448.7602699 65 437 C66.60024522 434.89269241 68.20400472 432.78847968 69.8125 430.6875 C70.23313721 430.13465332 70.65377441 429.58180664 71.0871582 429.01220703 C89.07699547 405.54186389 113.88508254 388.51000578 141 377 C119.53752486 384.53469872 101.04474937 394.76210686 83.3828125 409.12890625 C77.14419132 414.15971357 72.2940233 416.78245503 64 416 C61.67954185 414.4530279 61.14489837 413.46104026 60.3125 410.8125 C60.209375 410.214375 60.10625 409.61625 60 409 C59.01 409.33 58.02 409.66 57 410 C53.46995048 410.25673087 50.90293209 410.43926426 47.6875 408.875 C45.51006642 406.45562935 44.8309193 404.11594739 44 401 C43.40832031 400.96261719 42.81664062 400.92523438 42.20703125 400.88671875 C33.59269933 400.17002882 33.59269933 400.17002882 30 397 C28.17179136 393.46966608 27 390.98919362 27 387 C25.96875 386.896875 24.9375 386.79375 23.875 386.6875 C19.91962172 385.98573934 17.34716963 385.20608908 14 383 C11.2419156 378.81532022 10.49466962 374.9466962 10 370 C9.40832031 369.85304688 8.81664062 369.70609375 8.20703125 369.5546875 C3.63820147 368.25782554 -0.12615155 367.01718946 -3.0703125 363.02734375 C-5.08359093 358.63704332 -5.48391804 353.76027841 -6 349 C-7.051875 348.79375 -8.10375 348.5875 -9.1875 348.375 C-13.39676707 347.14800717 -15.8603165 344.78623682 -18 341 C-19.02902546 338.35776275 -19.58230782 335.79908006 -20 333 C-20.20625 331.783125 -20.4125 330.56625 -20.625 329.3125 C-20 326 -20 326 -16.9453125 323.7734375 C-10.28290901 319.85215829 -3.22284362 316.6368373 3.75 313.3125 C5.17338673 312.62999433 6.59656552 311.94705484 8.01953125 311.26367188 C10.62077671 310.01460601 13.22342291 308.76854426 15.82714844 307.5246582 C18.22974921 306.37013051 20.61809875 305.19605429 23 304 C22.22738579 304.30067383 22.22738579 304.30067383 21.43916321 304.60742188 C16.07341598 306.69368454 10.70322859 308.76818397 5.33032227 310.8359375 C3.32623091 311.60897427 1.3232876 312.38499426 -0.6784668 313.1640625 C-3.55740862 314.28392873 -6.44032044 315.39297081 -9.32421875 316.5 C-10.21711105 316.84998047 -11.11000336 317.19996094 -12.029953 317.56054688 C-12.87044693 317.88087891 -13.71094086 318.20121094 -14.5769043 318.53125 C-15.67943794 318.95760742 -15.67943794 318.95760742 -16.804245 319.39257812 C-19.31259667 320.08647507 -21.40874096 320.18731624 -24 320 C-27.74785994 317.05660495 -29.2976047 312.84971801 -29.9375 308.25 C-30.28014039 304.6865399 -30.11228562 304.16842844 -28 301 C-25.81037903 299.98953247 -25.81037903 299.98953247 -23.05395508 299.08642578 C-22.02140091 298.7424173 -20.98884674 298.39840881 -19.92500305 298.04397583 C-18.23929451 297.50013748 -18.23929451 297.50013748 -16.51953125 296.9453125 C-15.35934982 296.5618869 -14.1991684 296.1784613 -13.00382996 295.78341675 C-9.27655101 294.5540697 -5.5446958 293.33932825 -1.8125 292.125 C0.65331293 291.31476964 3.1188117 290.50358252 5.58398438 289.69140625 C10.29828143 288.13965492 15.01422467 286.59310429 19.73193359 285.05175781 C26.83134674 282.73101889 33.91893945 280.37611422 41 278 C40.35013123 278.16873123 39.70026245 278.33746246 39.03070068 278.51130676 C32.216598 280.28039983 25.40229935 282.04873657 18.58789062 283.81665039 C16.05073174 284.47498825 13.5136215 285.13351365 10.9765625 285.79223633 C7.31263047 286.74350485 3.64851922 287.69408041 -0.015625 288.64453125 C-1.13487366 288.9352803 -2.25412231 289.22602936 -3.4072876 289.52558899 C-8.79350546 290.92205769 -14.18239499 292.3075017 -19.57714844 293.6706543 C-20.53022888 293.91156296 -21.48330933 294.15247162 -22.465271 294.40068054 C-25.94548785 295.22355418 -28.45401908 295.68191941 -32 295 C-37.68449261 291.44045055 -42.11596335 286.51670211 -44 280 C-43.87625 278.824375 -43.7525 277.64875 -43.625 276.4375 C-43.60963837 272.93856265 -43.60963837 272.93856265 -46 271.2890625 C-47.78010245 270.1182213 -49.57370988 268.967706 -51.37890625 267.8359375 C-55.70588973 264.80511449 -58.65010927 260.69978147 -61 256 C-60.89062465 254.1032011 -60.76290018 252.20743867 -60.625 250.3125 C-60.52402115 245.86270758 -60.52402115 245.86270758 -62.37890625 241.96875 C-63.59778703 240.85253952 -64.84381145 239.76535192 -66.11328125 238.70703125 C-70.3363343 234.88617373 -72.53383015 229.80252343 -73.9375 224.375 C-74 221 -74 221 -72.5 217.75 C-71.58561498 214.01839827 -71.58561498 214.01839827 -73.69140625 211.4296875 C-75.30212817 209.52441841 -76.93871421 207.64077788 -78.59765625 205.77734375 C-82.97320514 200.71878236 -86.83627346 194.8765148 -87 188 C-85 185 -85 185 -81.9609375 184.26953125 C-80.77757812 184.11871094 -79.59421875 183.96789062 -78.375 183.8125 C-77.18648437 183.65394531 -75.99796875 183.49539062 -74.7734375 183.33203125 C-73.85820313 183.22246094 -72.94296875 183.11289063 -72 183 C-72.92941406 182.10539063 -73.85882813 181.21078125 -74.81640625 180.2890625 C-94.73999221 160.89020631 -94.73999221 160.89020631 -95.125 150.6875 C-95.08375 149.800625 -95.0425 148.91375 -95 148 C-86.28921894 148.5352994 -78.24255284 151.07032058 -69.9375 153.5625 C-68.4852315 153.99223142 -67.03275888 154.42127365 -65.58007812 154.84960938 C-62.05099616 155.89180252 -58.52476962 156.94330138 -55 158 C-54.67 157.67 -54.34 157.34 -54 157 C-54.44279297 156.5875 -54.88558594 156.175 -55.34179688 155.75 C-59.60453695 151.77558261 -63.8545115 147.78799074 -68.09472656 143.78955078 C-69.55132165 142.42142649 -71.01928155 141.06539231 -72.4921875 139.71484375 C-83.44286056 129.37759013 -95.5631795 113.0125638 -96.125 97.5625 C-96.08375 96.716875 -96.0425 95.87125 -96 95 C-90.94635903 96.70813065 -86.7068206 99.57461645 -82.25 102.4375 C-81.40800049 102.97318604 -80.56600098 103.50887207 -79.69848633 104.06079102 C-75.69869142 106.61055232 -71.7132217 109.18096343 -67.74609375 111.78125 C-56.37840583 119.22627546 -44.74251777 126.16289568 -33 133 C-35.17390691 130.26723494 -37.36611528 127.55228459 -39.59375 124.86328125 C-56.05208739 104.85260086 -75.45964533 79.11907473 -75 52 C-71.97562409 53.36190453 -69.80875735 54.91288207 -67.41796875 57.203125 C-66.74048584 57.84709229 -66.06300293 58.49105957 -65.36499023 59.15454102 C-64.64641846 59.84604248 -63.92784668 60.53754395 -63.1875 61.25 C-61.66172789 62.7021062 -60.13568075 64.15392347 -58.609375 65.60546875 C-57.45598633 66.70640869 -57.45598633 66.70640869 -56.27929688 67.82958984 C-52.85093701 71.09416988 -49.39784215 74.3318773 -45.9375 77.5625 C-45.31294922 78.14572021 -44.68839844 78.72894043 -44.04492188 79.32983398 C-40.38193333 82.74042404 -36.68372076 86.09774204 -32.88671875 89.359375 C-30.55430857 91.38755777 -28.28173745 93.47752357 -26 95.5625 C-21.84779801 99.31619344 -17.55770318 102.75359131 -13 106 C-13.556875 105.030625 -14.11375 104.06125 -14.6875 103.0625 C-46.88529745 46.65417597 -46.88529745 46.65417597 -43 19 C-42.34 18.34 -41.68 17.68 -41 17 C-36.49932841 23.08686816 -32.13273768 29.24218074 -27.875 35.5 C-14.53048125 55.03416386 -0.02442431 73.73625818 15 92 C14.65743164 91.02466309 14.31486328 90.04932617 13.96191406 89.04443359 C1.18819769 52.51085252 1.18819769 52.51085252 -1 34 C-1.21849609 32.2675 -1.21849609 32.2675 -1.44140625 30.5 C-2.43188527 20.87103937 -2.99299099 10.52206806 -1 1 C-0.67 0.67 -0.34 0.34 0 0 Z M8 32 C7.41496784 66.92986134 21.47288488 107.22493617 45.42578125 132.56640625 C48.72150083 135.9304309 52.1066025 139.13008116 55.6875 142.1875 C60.38219853 146.20071004 64.66957888 150.61771223 68.98901367 155.02612305 C73.70366212 159.85039245 73.70366212 159.85039245 79 164 C80.32 164 81.64 164 83 164 C81.70862313 160.50955325 80.19380155 157.55179263 78.12109375 154.46484375 C77.53827637 153.58763672 76.95545898 152.71042969 76.35498047 151.80664062 C75.72221191 150.85982422 75.08944336 149.91300781 74.4375 148.9375 C60.73283512 128.16172239 48.01934862 106.79280442 36 85 C35.4318457 83.97729004 34.86369141 82.95458008 34.27832031 81.90087891 C26.85225005 68.50487075 19.93785955 55.0083409 13.73022461 41.01049805 C13.0361853 39.45649292 13.0361853 39.45649292 12.328125 37.87109375 C11.9249707 36.95255615 11.52181641 36.03401855 11.10644531 35.08764648 C10.17769303 32.84681878 10.17769303 32.84681878 8 32 Z M199 46 C190.86913273 62.26173454 188.10513212 81.92944208 189 100 C189.02964844 101.09570312 189.05929687 102.19140625 189.08984375 103.3203125 C189.93758083 122.46676468 203.35455652 148.35455652 217 162 C218.66617115 162.04063832 220.33388095 162.042721 222 162 C219.0073151 143.75388616 215.54478019 125.72012716 210.9375 107.8125 C205.70060867 87.40182707 202.53702529 66.90707596 200 46 C199.67 46 199.34 46 199 46 Z M-28 48 C-24.29579128 76.99501309 -8.50863701 106.05447045 9 129 C9.56589844 129.80695313 10.13179687 130.61390625 10.71484375 131.4453125 C14.10387894 135.23408004 18.09986382 138.06356368 22.1875 141.0625 C23.07590576 141.72080811 23.96431152 142.37911621 24.87963867 143.05737305 C32.49533458 148.67898323 40.17685331 154.20194959 47.96533203 159.58154297 C50.06435556 161.04486511 52.13963895 162.5382951 54.21484375 164.03515625 C55.55927347 164.98265454 56.90430051 165.92930599 58.25 166.875 C58.8581958 167.32270752 59.4663916 167.77041504 60.09301758 168.23168945 C61.99860994 169.6089278 61.99860994 169.6089278 65 171 C67.88442892 170.41830685 67.88442892 170.41830685 70 169 C69.41686234 165.92595428 68.5872989 164.19138471 66.48046875 161.890625 C65.95864014 161.30885498 65.43681152 160.72708496 64.89916992 160.12768555 C64.33431885 159.50804932 63.76946777 158.88841309 63.1875 158.25 C58.4269515 152.90321282 53.94094959 147.44628002 49.6875 141.6875 C49.18694092 141.01130615 48.68638184 140.3351123 48.1706543 139.63842773 C47.21136119 138.34106617 46.25259522 137.04331462 45.29443359 135.74511719 C39.20112574 127.53029929 32.45832924 120.04602491 25.48291016 112.58740234 C18.83359958 105.46955292 12.44578062 98.21983498 6.33251953 90.63720703 C4.81778396 88.77611932 3.28328215 86.93242794 1.74609375 85.08984375 C-6.74275711 74.89874 -14.80827102 64.46018684 -22.640625 53.75830078 C-23.18203125 53.02466309 -23.7234375 52.29102539 -24.28125 51.53515625 C-24.77689453 50.85976807 -25.27253906 50.18437988 -25.78320312 49.48852539 C-26.18474609 48.99731201 -26.58628906 48.50609863 -27 48 C-27.33 48 -27.66 48 -28 48 Z M163 61 C155.75268974 77.42723659 159.20470821 103.24053662 164.92138672 119.64379883 C166.45674038 122.99773685 168.81330056 125.52867966 171.25 128.25 C172.3402335 129.49200653 173.42870081 130.73556509 174.515625 131.98046875 C175.08603516 132.63321777 175.65644531 133.2859668 176.24414062 133.95849609 C179.23399832 137.4347461 182.10847235 141.0044684 185 144.5625 C191.05389035 151.98125214 197.40792805 159.05779969 204 166 C204.99 165.67 205.98 165.34 207 165 C206.36826351 161.31077553 205.33994965 158.06761756 203.92578125 154.60546875 C203.50901123 153.57631348 203.09224121 152.5471582 202.6628418 151.48681641 C202.217229 150.39804199 201.77161621 149.30926758 201.3125 148.1875 C198.47523775 141.20461873 195.68800669 134.23533651 193.1875 127.125 C190.18689359 118.79759856 186.15991024 110.95831966 182.25976562 103.0246582 C175.56409715 89.27735142 169.77880487 75.15185433 164 61 C163.67 61 163.34 61 163 61 Z M228 70 C223.18985074 79.292799 220.35801384 88.86034447 218 99 C217.78939941 99.85029785 217.57879883 100.7005957 217.36181641 101.57666016 C213.76193845 116.76267625 215.99149343 127.70692679 221.81396484 142.02197266 C223.00168005 145.00421845 224.07049467 148.00730115 225.11328125 151.04296875 C225.7825418 152.9457746 226.45306094 154.84813837 227.125 156.75 C227.574198 158.06303101 227.574198 158.06303101 228.0324707 159.40258789 C228.3337085 160.21332764 228.63494629 161.02406738 228.9453125 161.859375 C229.19812988 162.56545898 229.45094727 163.27154297 229.71142578 163.99902344 C231.56896606 166.88352516 234.10351768 168.24369053 237 170 C236.92483154 169.1241626 236.84966309 168.2483252 236.7722168 167.34594727 C235.20867783 149.05029587 233.72311743 130.75036981 232.375 112.4375 C232.31283295 111.60179474 232.25066589 110.76608948 232.18661499 109.90505981 C232.00493903 107.45639823 231.82591607 105.00756297 231.6484375 102.55859375 C231.59124039 101.77498978 231.53404327 100.9913858 231.47511292 100.18403625 C231.18095819 96.02516496 230.93960629 91.86920992 230.76269531 87.70361328 C230.72447662 86.83793228 230.68625793 85.97225128 230.6468811 85.08033752 C230.5768206 83.42647922 230.51451331 81.77226778 230.46127319 80.11778259 C230.29982095 76.30875237 230.13369829 73.23828339 228 70 Z M-57 77 C-55.16673431 83.9305275 -52.72879881 90.07995936 -49.3125 96.375 C-48.86970703 97.20080566 -48.42691406 98.02661133 -47.97070312 98.87744141 C-40.09282043 113.37217881 -30.12954014 126.30060478 -19.4375 138.8125 C-18.9319458 139.4103833 -18.4263916 140.0082666 -17.90551758 140.62426758 C-16.31317648 142.46135036 -14.67421971 144.23726486 -13 146 C-12.42362793 146.62068359 -11.84725586 147.24136719 -11.25341797 147.88085938 C-3.83687795 155.17509859 5.54261279 159.29531438 14.75 163.875 C16.50727266 164.76052711 18.26410723 165.64692411 20.02050781 166.53417969 C25.00305148 169.044384 29.99897729 171.52685662 35 174 C35.65838867 174.32641479 36.31677734 174.65282959 36.99511719 174.98913574 C40.57129961 176.76120206 44.15525739 178.51590249 47.75 180.25 C48.9870166 180.84917236 48.9870166 180.84917236 50.24902344 181.46044922 C54.43998311 183.45724847 54.43998311 183.45724847 59 184 C59.33 182.02 59.66 180.04 60 178 C59.3915625 177.52433594 58.783125 177.04867187 58.15625 176.55859375 C50.00437722 170.04908357 42.47989955 162.97087212 34.91308594 155.79980469 C32.20186702 153.24912758 29.44647784 150.7487571 26.6875 148.25 C22.8041052 144.71820986 19.09434457 141.0778103 15.4375 137.3125 C11.25245061 133.08571935 6.93869523 129.60909639 2.0703125 126.2109375 C-12.58435695 115.65808392 -26.22639795 103.43050246 -39.5390625 91.25 C-45.14662878 86.12308226 -50.73405033 81.3078404 -57 77 Z M134 86 C133.50895087 100.24042488 135.41303458 122.00595389 145 133.4375 C146.30103591 134.6602999 147.64103254 135.84192338 149 137 C150.09704422 138.02897565 151.18900723 139.06338115 152.27734375 140.1015625 C157.74195156 145.28876027 163.31552079 150.35100728 169.0234375 155.26953125 C171.49157623 157.43037207 173.89804009 159.65437702 176.3125 161.875 C185.18022648 171.24004776 185.18022648 171.24004776 196 176 C186.68387125 160.17104608 186.68387125 160.17104608 177.23999023 144.41821289 C175.31129544 141.22714759 173.43596156 138.01467134 171.61328125 134.76171875 C167.32584788 127.16615905 162.90868206 120.28372802 157.11474609 113.75048828 C153.7224436 109.91899841 150.68684102 105.93994566 147.75 101.75 C147.33943359 101.16565186 146.92886719 100.58130371 146.50585938 99.97924805 C146.10689453 99.41117432 145.70792969 98.84310059 145.296875 98.2578125 C143.24183589 95.34301213 141.15538024 92.46618305 139 89.625 C138.46375 88.91601562 137.9275 88.20703125 137.375 87.4765625 C136.92125 86.98929687 136.4675 86.50203125 136 86 C135.34 86 134.68 86 134 86 Z M115 113 C114.54876487 119.20448306 115.41097516 124.67273052 116.8125 130.6875 C116.97782227 131.41187256 117.14314453 132.13624512 117.31347656 132.88256836 C119.44253258 141.62432802 122.41130473 145.85455979 129.9375 150.6875 C131.64617025 151.81980425 133.35448035 152.95265209 135.0625 154.0859375 C136.00222656 154.70307617 136.94195312 155.32021484 137.91015625 155.95605469 C141.31291598 158.2069953 144.69045316 160.49249174 148.0625 162.7890625 C148.67106339 163.20346085 149.27962677 163.61785919 149.90663147 164.04481506 C151.14088693 164.88552476 152.37506358 165.72635016 153.60916138 166.56729126 C156.52746187 168.55482969 159.44859585 170.53817096 162.37109375 172.51953125 C162.92405624 172.89452255 163.47701874 173.26951385 164.04673767 173.65586853 C168.83087985 176.89539123 173.64164717 180.09344137 178.46118164 183.2800293 C180.69457031 184.79308086 182.85941323 186.35927121 185 188 C185.66 187.67 186.32 187.34 187 187 C182.20260651 180.95479962 177.27275268 175.13065463 172 169.5 C163.1941137 160.06117335 155.38803469 149.95653704 147.69921875 139.6015625 C147.23225586 138.97950928 146.76529297 138.35745605 146.28417969 137.71655273 C145.19603563 136.26203926 144.125347 134.79449234 143.05859375 133.32421875 C140.49387487 130.4285684 137.55347964 128.34352562 134.375 126.1875 C129.01605905 122.47217347 123.89346379 118.58955741 118.890625 114.3984375 C117.12394608 112.80177625 117.12394608 112.80177625 115 113 Z M-75 117 C-69.96032465 134.14502618 -54.54555837 147.91662579 -42 160 C-41.23300781 160.74894531 -40.46601562 161.49789062 -39.67578125 162.26953125 C-32.42294814 169.02216897 -23.31076187 172.45580348 -14.12109375 175.8203125 C-12.74314384 176.33174049 -12.74314384 176.33174049 -11.33735657 176.85350037 C-8.37316234 177.95070893 -5.40564379 179.03852535 -2.4375 180.125 C-1.42586792 180.49728729 -0.41423584 180.86957458 0.62805176 181.25314331 C14.10579034 186.21077675 27.62333986 191.02929217 41.25 195.5625 C41.95013214 195.79592102 42.65026428 196.02934204 43.37161255 196.26983643 C50.04942738 198.85675275 50.04942738 198.85675275 57 200 C57 199.01 57 198.02 57 197 C54.82134891 195.43936168 52.68524155 194.09214818 50.375 192.75 C34.82305614 183.3764452 19.59689951 173.11036068 5.42675781 161.73730469 C-3.17176754 154.83936539 -11.94216682 149.86811892 -21.95727539 145.26611328 C-34.96887652 139.25814881 -47.23437493 131.95452077 -59.59765625 124.73046875 C-60.47776367 124.21742188 -61.35787109 123.704375 -62.26464844 123.17578125 C-63.92575572 122.20547558 -65.58410864 121.23043444 -67.23925781 120.25 C-67.97112305 119.82074219 -68.70298828 119.39148438 -69.45703125 118.94921875 C-70.09616455 118.57112061 -70.73529785 118.19302246 -71.39379883 117.8034668 C-72.99878999 116.85087443 -72.99878999 116.85087443 -75 117 Z M103 142 C101.79648627 148.01756866 101.1507474 154.06424607 103 160 C104.71274887 161.6517612 104.71274887 161.6517612 107.04296875 162.8046875 C107.95006592 163.30589111 108.85716309 163.80709473 109.79174805 164.32348633 C111.37983276 165.1533606 111.37983276 165.1533606 113 166 C113.59060211 166.3130307 114.18120422 166.6260614 114.78970337 166.94857788 C119.66885911 169.53440851 124.58153317 172.0524762 129.5 174.5625 C131.05249701 175.35806367 132.60490489 176.15380129 134.15722656 176.94970703 C144.70753234 182.35183836 155.28989516 187.68809285 165.91601562 192.93969727 C170.04963227 194.98833358 174.12401828 197.03468996 178.078125 199.4140625 C179.04234375 199.93742187 180.0065625 200.46078125 181 201 C181.66 200.67 182.32 200.34 183 200 C182.21238281 199.40574219 181.42476563 198.81148437 180.61328125 198.19921875 C173.60480252 192.87820784 166.8055093 187.37392117 160.12109375 181.65234375 C157.26888131 179.21448781 154.36052247 176.85267662 151.4375 174.5 C146.37032215 170.3783014 141.57433941 166.01087398 136.7890625 161.5703125 C133.84276867 158.85510054 130.832449 156.23003865 127.7890625 153.625 C125.92114614 151.92837728 124.26270192 150.11323498 122.5625 148.25 C117.95046581 143.57493117 112.43632066 141.86501572 105.9375 141.8125 C104.4834375 141.9053125 104.4834375 141.9053125 103 142 Z M-78 160 C-75.80769637 170.84106192 -64.60410208 181.39589792 -57 189 C-54.14852648 189.84506963 -51.32640568 190.59193171 -48.4375 191.28515625 C-47.55543884 191.50214676 -46.67337769 191.71913727 -45.7645874 191.94270325 C-42.84500074 192.6575626 -39.92275068 193.36069689 -37 194.0625 C-35.99892212 194.30510559 -34.99784424 194.54771118 -33.96643066 194.79766846 C-13.47163044 199.76189572 7.11206536 204.25788206 27.76013184 208.53393555 C29.90134268 208.97947171 32.04125397 209.43066904 34.18066406 209.88476562 C37.74364703 210.64046791 41.30867619 211.38525106 44.875 212.125 C45.87305664 212.33753418 46.87111328 212.55006836 47.89941406 212.76904297 C48.7962793 212.95096191 49.69314453 213.13288086 50.6171875 213.3203125 C51.75583252 213.55645264 51.75583252 213.55645264 52.91748047 213.79736328 C55.19237496 214.01871878 56.83211268 213.68133602 59 213 C58.20343994 212.68998047 57.40687988 212.37996094 56.58618164 212.06054688 C40.88375723 205.91071971 25.36811683 199.48020095 10.1875 192.125 C9.49643158 191.79184784 8.80536316 191.45869568 8.09335327 191.115448 C0.97785299 187.67033705 -5.96740209 184.11067878 -12.70703125 179.96484375 C-29.22069408 169.86135274 -44.98898883 165.25120767 -63.83203125 161.44140625 C-64.56838303 161.29223755 -65.3047348 161.14306885 -66.06340027 160.98937988 C-70.0961532 160.22025036 -73.89661867 159.85151047 -78 160 Z M-75 191 C-74.5540063 196.79791812 -72.96074055 200.4494753 -69.75 205.25 C-69.17572266 206.16652344 -69.17572266 206.16652344 -68.58984375 207.1015625 C-65.22744514 212.25199248 -62.32486358 214.46566945 -56.32885742 215.84375 C-54.86059366 216.07575015 -53.39003389 216.29348906 -51.91796875 216.5 C-51.09822067 216.62181641 -50.2784726 216.74363281 -49.43388367 216.86914062 C-37.43617759 218.5901612 -25.36783207 219.76741932 -13.3125 221 C-10.77146329 221.26297991 -8.23044779 221.52616488 -5.68945312 221.78955078 C1.53937779 222.53620937 8.76935058 223.27117837 16 224 C16.96423889 224.09728394 17.92847778 224.19456787 18.92193604 224.2947998 C24.28013496 224.83389023 29.63939398 225.36043767 35 225.875 C36.22936279 225.99488281 37.45872559 226.11476562 38.7253418 226.23828125 C44.84909139 226.80821873 50.84979946 227.11727077 57 227 C53.69769002 225.15638522 50.47745057 224.27522563 46.8046875 223.40625 C45.54841553 223.10332031 44.29214355 222.80039063 42.99780273 222.48828125 C42.3273996 222.3279541 41.65699646 222.16762695 40.96627808 222.00244141 C13.02395751 215.28914058 -15.44986911 207.8318429 -41.90625 196.50390625 C-42.88561523 196.0869751 -43.86498047 195.67004395 -44.87402344 195.24047852 C-46.71935875 194.44454059 -48.55689945 193.63013369 -50.38378906 192.79272461 C-58.54841831 189.23738827 -66.3164605 189.12247795 -75 191 Z M132 208 C135.23991275 215.22500544 141.66328435 220.73450423 147.28125 226.1640625 C156.26500795 234.86440035 164.00672303 242.93780731 170 254 C170.48243164 254.88494141 170.96486328 255.76988281 171.46191406 256.68164062 C173.6969172 260.79339502 175.92072194 264.91099298 178.13183594 269.03564453 C191.62321469 294.14000516 208.26853671 319.76685232 233 335 C233.66 334.67 234.32 334.34 235 334 C233.9790625 333.2575 233.9790625 333.2575 232.9375 332.5 C229.19398747 329.31403189 226.16879173 325.74764822 223 322 C222.16082031 321.02546875 221.32164062 320.0509375 220.45703125 319.046875 C204.03441699 299.92191677 190.67587592 279.78281327 179.08984375 257.38671875 C170.4425322 240.82194503 160.46659738 229.69050096 146 218 C145.0409375 217.20980469 144.081875 216.41960937 143.09375 215.60546875 C137.86982797 211.30432957 137.86982797 211.30432957 132 208 Z M98 220 C96.31861279 230.25646198 97.44455085 238.73963687 103.14453125 247.578125 C105.80571088 251.05166473 108.8336912 254.03037522 112.046875 256.9921875 C115.06180935 260.09154001 116.29459123 262.84445116 116.36328125 267.16796875 C116.23862576 272.46962092 114.41740809 276.57394531 112.1875 281.3125 C111.4465273 283.00028918 110.71080686 284.69039438 109.98046875 286.3828125 C109.45912354 287.5879248 109.45912354 287.5879248 108.92724609 288.81738281 C103.08876404 302.56041323 102.70984917 320.71089207 107 335 C107.91385279 331.68327351 108.16387579 328.55297956 108.29003906 325.11230469 C108.91879564 308.09251447 111.58093162 291.84477889 119.8125 276.6875 C122.81171044 270.92560991 122.98714828 266.1588745 121.0625 260 C119.1313403 257.19104043 117.1948698 255.16573924 114.75 252.8125 C106.60353101 244.9451107 101.77929872 236.27874965 99.875 225.125 C99.70742187 224.15820312 99.53984375 223.19140625 99.3671875 222.1953125 C99.24601563 221.47085938 99.12484375 220.74640625 99 220 C98.67 220 98.34 220 98 220 Z M240 210 C238.67372219 211.45311609 238.67372219 211.45311609 237.4375 213.3125 C237.00308594 213.92738281 236.56867188 214.54226562 236.12109375 215.17578125 C234.04919997 218.54712061 233.88742276 221.33155253 233.9375 225.1875 C233.94652344 226.08855469 233.95554687 226.98960937 233.96484375 227.91796875 C233.97644531 228.60503906 233.98804688 229.29210937 234 230 C233.33613281 229.72285156 232.67226563 229.44570312 231.98828125 229.16015625 C231.10527344 228.79792969 230.22226562 228.43570313 229.3125 228.0625 C228.44238281 227.70285156 227.57226562 227.34320313 226.67578125 226.97265625 C215.58356242 222.94059422 203.95676861 224.64917559 193.30078125 229.13671875 C185.15488108 232.99658475 180.00410071 237.49384894 175 245 C179.01103244 245 181.14293042 243.01696515 184.3125 240.8125 C197.00040971 232.38476435 210.73532472 228.25117424 226 230.8125 C229.77189789 231.59634753 233.35895601 232.74574502 237 234 C237.03867187 232.53240234 237.03867187 232.53240234 237.078125 231.03515625 C237.41208994 223.31601212 238.03142724 216.81117837 242 210 C241.34 210 240.68 210 240 210 Z M139 265 C129.76781859 277.18647946 127.89856744 289.09223843 129 304 C129.29449182 306.00608716 129.61147334 308.00998539 130 310 C130.33 310 130.66 310 131 310 C131.02578125 308.98164063 131.0515625 307.96328125 131.078125 306.9140625 C131.36472613 298.93779121 132.10692427 291.24404172 133.8125 283.4375 C133.96557617 282.71320801 134.11865234 281.98891602 134.27636719 281.24267578 C135.34697655 276.63693552 136.97383886 272.76810391 139.29956055 268.64868164 C139.53070557 268.1046167 139.76185059 267.56055176 140 267 C139.67 266.34 139.34 265.68 139 265 Z M294 305 C294 305.33 294 305.66 294 306 C301.83556858 307.83286921 309.29480282 308.34410031 317.3203125 308.390625 C324.28474056 308.57497751 329.05948513 310.31888035 334.78979492 314.21777344 C338.1247227 316.43306621 338.1247227 316.43306621 341.9921875 316.8046875 C344.15552347 316.22623318 344.15552347 316.22623318 347 315 C347.46386348 311.01472954 347.46386348 311.01472954 345.0625 309 C336.22317083 303.22737687 326.81503242 300.60669892 316.3125 300.625 C315.53664551 300.62371094 314.76079102 300.62242187 313.96142578 300.62109375 C306.79986409 300.75084821 300.67628883 302.35779382 294 305 Z M313 314 C312.67 314.99 312.34 315.98 312 317 C314.10633911 320.74460287 316.15103637 323.96231337 320 326 C324.08216478 326.69483656 325.52047879 326.33668511 328.9375 323.9375 C331.32041984 321.11161091 331.32041984 321.11161091 331.125 317.4375 C329.78947087 313.35671654 328.73400421 312.07444678 325 310 C319.80283325 309.11537587 317.01066609 310.73550434 313 314 Z M278 320 C275.89959476 322.56716196 275.91963407 324.09322971 276.20703125 327.3359375 C277.51687551 335.48879993 280.95668684 340.38256962 287.12109375 345.703125 C293.48694552 350.09701853 300.55578453 349.76250148 308 349 C315.99747362 346.74678192 323.05071814 342.45439331 330 338 C331.01191406 337.360625 332.02382813 336.72125 333.06640625 336.0625 C335.71663133 334.38368565 338.36072593 332.69595938 341 331 C336.41837803 329.47279268 331.6510186 330.07138517 326.8671875 330.30273438 C320.97703305 330.43482256 317.87719551 329.31673028 313 326 C312.18273437 325.46117187 311.36546875 324.92234375 310.5234375 324.3671875 C309.08519171 323.36826042 307.64769707 322.36825103 306.2109375 321.3671875 C297.98104454 316.27803108 286.58155166 315.03787829 278 320 Z M356 318 C357.32 319.32 358.64 320.64 360 322 C358.02 322.99 358.02 322.99 356 324 C358.12179069 325.32162027 358.12179069 325.32162027 361.1875 324.3125 C366.87787046 323.46522057 372.10663791 325.41317512 377.51171875 326.9921875 C380.34088638 327.809573 383.10510755 328.47969428 386 329 C377.44734419 322.09363005 366.56145332 319.92168455 356 318 Z M113.25 345.1875 C110.28253676 348.89682905 109.6751823 352.37449739 109 357 C110.91931448 354.62005005 112.8229509 352.23086217 114.68359375 349.8046875 C115.28300781 349.02351563 115.88242188 348.24234375 116.5 347.4375 C117.0671875 346.69371094 117.634375 345.94992187 118.21875 345.18359375 C120.02350581 342.97118477 121.94885297 340.98367509 124 339 C119.81181502 339 116.39536953 342.68550151 113.25 345.1875 Z M230 368 C229.5359375 368.40089844 229.071875 368.80179687 228.59375 369.21484375 C207.93583932 386.21137101 180.39672142 395.48224043 154 398 C168.59681093 387.44191344 168.59681093 387.44191344 176 383 C174.02591124 381.74303298 174.02591124 381.74303298 171.8112793 382.53808594 C150.78404628 389.80787054 130.70725737 397.95432696 114 413 C113.50322754 413.44311523 113.00645508 413.88623047 112.49462891 414.34277344 C102.91657168 423.02358134 95.32263792 433.19762897 90 445 C95.68502535 443.35433477 100.76681636 440.70967216 106 438 C105.28457031 438.70253906 104.56914062 439.40507812 103.83203125 440.12890625 C89.33503388 454.18478798 89.33503388 454.18478798 82 472 C82.90621094 471.7834375 83.81242188 471.566875 84.74609375 471.34375 C93.3462772 469.37799378 100.6570122 468.45445649 109.375 469.5 C118.59789848 470.99240019 118.59789848 470.99240019 127.25390625 468.66015625 C128.96794612 467.18850585 130.51632617 465.70141435 132 464 C131.505 465.216875 131.01 466.43375 130.5 467.6875 C129.27520559 470.92486738 128.67196815 473.50099357 129 477 C133.01657408 476.394869 136.03074684 475.11395154 139.59375 473.18359375 C140.69307861 472.59167236 141.79240723 471.99975098 142.92504883 471.38989258 C144.11682164 470.73931926 145.30846888 470.08851587 146.5 469.4375 C147.73503339 468.76868691 148.97030779 468.10031868 150.20581055 467.43237305 C154.14343759 465.29959826 158.07269164 463.15170484 162 461 C162.66614319 460.63515503 163.33228638 460.27031006 164.01861572 459.89440918 C181.0783212 450.57038989 181.0783212 450.57038989 198 441 C187.61843865 450.89301728 176.05427954 459.25782046 164 467 C167.56272544 468.2348322 169.97499113 467.75916822 173.59375 466.84765625 C174.69710693 466.56978271 175.80046387 466.29190918 176.93725586 466.00561523 C178.11296143 465.69438721 179.28866699 465.38315918 180.5 465.0625 C182.3109314 464.58695679 182.3109314 464.58695679 184.15844727 464.10180664 C198.76554262 460.14142879 213.98105791 454.90705573 227 447 C227.33 446.34 227.66 445.68 228 445 C227.0409375 444.7215625 227.0409375 444.7215625 226.0625 444.4375 C224 443 224 443 223.3125 439.4375 C223.1578125 437.7359375 223.1578125 437.7359375 223 436 C222.67 435.67 222.34 435.34 222 435 C221.79160985 433.35892758 221.63248275 431.71143707 221.5 430.0625 C221.24785057 426.39442535 221.24785057 426.39442535 220 423 C220.13022824 417.43023851 220.94786805 412.19873428 223 407 C222.34 406.67 221.68 406.34 221 406 C222.51085262 395.69742403 225.0662812 386.22830648 228.75024414 376.47753906 C229.05438232 375.6625293 229.35852051 374.84751953 229.671875 374.0078125 C229.9512793 373.28223145 230.23068359 372.55665039 230.51855469 371.80908203 C231.23537798 369.91892573 231.23537798 369.91892573 230 368 Z M30 473 C29.67 473.66 29.34 474.32 29 475 C29.99 474.67 30.98 474.34 32 474 C31.34 473.67 30.68 473.34 30 473 Z M27 475 C26.67 475.66 26.34 476.32 26 477 C26.99 476.67 27.98 476.34 29 476 C28.34 475.67 27.68 475.34 27 475 Z M41 476 C40.67 476.66 40.34 477.32 40 478 C40.99 477.67 41.98 477.34 43 477 C42.34 476.67 41.68 476.34 41 476 Z M24 477 C23.67 477.66 23.34 478.32 23 479 C23.99 478.67 24.98 478.34 26 478 C25.34 477.67 24.68 477.34 24 477 Z M21 479 C20.67 479.66 20.34 480.32 20 481 C20.99 480.67 21.98 480.34 23 480 C22.34 479.67 21.68 479.34 21 479 Z M37 479 C36.67 479.66 36.34 480.32 36 481 C36.99 480.67 37.98 480.34 39 480 C38.34 479.67 37.68 479.34 37 479 Z M209.31640625 478.40234375 C187.88255825 479.72650722 166.46908175 480.53100132 145 481 C144.67 481.66 144.34 482.32 144 483 C144.77594513 482.99333817 145.55189026 482.98667633 146.35134888 482.97981262 C153.67810072 482.91960238 161.00473191 482.87397545 168.33166695 482.84456348 C172.09817214 482.82893394 175.86447221 482.80774576 179.63085938 482.77368164 C183.26835002 482.74099065 186.90564385 482.7231266 190.54327011 482.71536827 C191.92830374 482.70984215 193.31332709 482.69905095 194.69827652 482.68280983 C196.64395821 482.66090872 198.58983961 482.65977352 200.53564453 482.65942383 C201.64150909 482.65276199 202.74737366 482.64610016 203.88674927 482.63923645 C207.46134482 483.05346065 209.85983239 484.29347751 213 486 C213.66 486 214.32 486 215 486 C217.96235695 482.36676311 217.96235695 482.36676311 219 478 C215.75372605 478 212.5565895 478.19696046 209.31640625 478.40234375 Z M224.0625 483.8125 C221.64221944 486.5787268 221.64221944 486.5787268 221 490 C221.928125 490.598125 222.85625 491.19625 223.8125 491.8125 C227.01015502 494.00696913 228.29346861 495.58693721 230 499 C233.85025879 498.39644592 236.86101159 497.23227397 240.3125 495.4375 C241.19550781 494.98246094 242.07851563 494.52742188 242.98828125 494.05859375 C243.65214844 493.70925781 244.31601562 493.35992187 245 493 C241.66754879 486.46326878 238.66737096 482.40026891 231.5625 479.6875 C227.35735339 480.05637251 226.79978967 480.77719895 224.0625 483.8125 Z M30 484 C29.67 484.66 29.34 485.32 29 486 C29.99 485.67 30.98 485.34 32 485 C31.34 484.67 30.68 484.34 30 484 Z M247 484 C247.66 485.98 248.32 487.96 249 490 C249.99 490 250.98 490 252 490 C250.63016497 486.83884224 250.0109362 486.0072908 247 484 Z M27 486 C26.01 487.485 26.01 487.485 25 489 C26.32 488.34 27.64 487.68 29 487 C28.34 486.67 27.68 486.34 27 486 Z M194 498 C191.6621776 500.09429924 189.40138946 502.22072143 187.203125 504.4609375 C184.34508167 506.45751387 182.40998079 506.28254127 179 506 C178.34 507.65 177.68 509.3 177 511 C189.92630179 510.57197676 202.48483822 508.1878575 215 505 C214.56944732 500.26392055 212.45501593 496.24562102 209 493 C202.867295 490.7910158 198.87008289 494.47063933 194 498 Z M219 497 C219.66 498.65 220.32 500.3 221 502 C221.66 502 222.32 502 223 502 C222.73323796 500.01508358 222.73323796 500.01508358 222 498 C221.01 497.67 220.02 497.34 219 497 Z " fill="#000000" transform="translate(128,12)"/>
<path d="M0 0 C2.17923738 2.13829138 4.17275862 4.21987461 6.0625 6.625 C7.95481493 9.18227196 7.95481493 9.18227196 11 11 C11.4765625 14.15234375 11.4765625 14.15234375 11.625 17.9375 C11.81525626 23.05952395 11.81525626 23.05952395 13 28 C13.17017234 29.7205722 13.29568473 31.44573576 13.39453125 33.171875 C16.54091548 82.9538128 32.30442608 127.13297191 67.06542969 163.77514648 C69.2777069 166.10717554 71.21087041 168.31630562 73 171 C71.58833114 171.98635837 70.17043816 172.96381255 68.75 173.9375 C67.96109375 174.48277344 67.1721875 175.02804687 66.359375 175.58984375 C64.09269589 176.94459733 62.59693822 177.65659032 60 178 C57.72640125 176.19467633 55.8558926 174.46692983 53.875 172.375 C53.30096436 171.78251465 52.72692871 171.1900293 52.13549805 170.57958984 C46.58776408 164.75196325 41.66761343 158.5469319 37 152 C36.60780273 151.4627832 36.21560547 150.92556641 35.81152344 150.37207031 C10.2983175 115.22100572 -2.1730885 73.17391706 -2.3125 30 C-2.32095947 28.10495728 -2.32095947 28.10495728 -2.32958984 26.17163086 C-2.26107651 17.29102582 -1.35699972 8.76185278 0 0 Z " fill="#000000" transform="translate(80,300)"/>
<path d="M0 0 C0.66 0 1.32 0 2 0 C0.58503791 10.83563071 -1.6767035 22.18670941 -10 30 C-13.375 31 -13.375 31 -16 31 C-15.01 31.66 -14.02 32.32 -13 33 C-19.02448445 38.83937459 -26.27141781 45.27672795 -35.125 45.3125 C-36.07375 45.209375 -37.0225 45.10625 -38 45 C-38 45.66 -38 46.32 -38 47 C-39.39572052 47.02736707 -40.79160221 47.04655989 -42.1875 47.0625 C-43.35345703 47.07990234 -43.35345703 47.07990234 -44.54296875 47.09765625 C-47.13147896 46.99477429 -49.46119013 46.50776197 -52 46 C-54.43505237 45.78301513 -56.87301384 45.59709255 -59.3125 45.4375 C-60.56675781 45.35371094 -61.82101562 45.26992188 -63.11328125 45.18359375 C-64.54220703 45.09271484 -64.54220703 45.09271484 -66 45 C-66 44.67 -66 44.34 -66 44 C-65.01902344 43.85304688 -64.03804688 43.70609375 -63.02734375 43.5546875 C-47.76088414 41.09167833 -33.87701542 35.63994311 -21 27 C-20.34 26.01 -19.68 25.02 -19 24 C-19.71349609 24.52787109 -19.71349609 24.52787109 -20.44140625 25.06640625 C-30.96041349 32.48589018 -42.37154107 37.53074825 -55 40 C-53.69942372 34.66763725 -51.1555837 30.57401346 -47 27 C-46.01 27 -45.02 27 -44 27 C-43.608125 26.2575 -43.21625 25.515 -42.8125 24.75 C-40.32815159 20.98064378 -37.158494 19.5804043 -33 18 C-32.34 18 -31.68 18 -31 18 C-30.505 19.485 -30.505 19.485 -30 21 C-29.62875 20.21625 -29.2575 19.4325 -28.875 18.625 C-26.52913582 15.34079014 -24.78358499 15.1582403 -21 14 C-20.16855469 13.12601562 -20.16855469 13.12601562 -19.3203125 12.234375 C-16.17740672 9.20787314 -12.63337829 7.37407611 -8.8125 5.3125 C-4.12069765 3.03453269 -4.12069765 3.03453269 0 0 Z " fill="#000000" transform="translate(560,277)"/>
<path d="M0 0 C13.77033507 4.03332299 25.36300059 15.47723221 35.75390625 24.9765625 C37.52725596 26.57411928 39.31683982 28.08383492 41.1875 29.5625 C44.85904348 32.74450435 47.86515024 36.29846586 51 40 C51.8146875 40.91523438 52.629375 41.83046875 53.46875 42.7734375 C72.50947701 64.3318027 85.93813602 89.81931432 95 117 C95.31179199 117.91845703 95.62358398 118.83691406 95.94482422 119.78320312 C96.22986816 120.66427734 96.51491211 121.54535156 96.80859375 122.453125 C97.06310303 123.23333008 97.3176123 124.01353516 97.57983398 124.81738281 C98.04383058 127.22768469 97.77220725 128.69355183 97 131 C96.54173828 129.55947266 96.54173828 129.55947266 96.07421875 128.08984375 C86.98625903 100.50726918 72.76045886 75.59706798 53.07421875 54.26171875 C51.19878414 52.21675333 49.40967467 50.12380525 47.625 48 C35.40409281 34.08097131 19.84065575 23.37459141 4 14 C3.01 13.34 2.02 12.68 1 12 C0.48828125 9.1796875 0.48828125 9.1796875 0.3125 5.875 C0.24675781 4.77929688 0.18101562 3.68359375 0.11328125 2.5546875 C0.05720703 1.29011719 0.05720703 1.29011719 0 0 Z " fill="#000000" transform="translate(374,151)"/>
<path d="M0 0 C0.50692692 1.5811292 1.00526443 3.16501383 1.5 4.75 C1.7784375 5.63171875 2.056875 6.5134375 2.34375 7.421875 C3 10 3 10 3 14 C0.27464312 14.86838824 -2.45416373 15.71992619 -5.1875 16.5625 C-5.95642578 16.80935547 -6.72535156 17.05621094 -7.51757812 17.31054688 C-15.16867423 19.64199676 -15.16867423 19.64199676 -19 18 C-20.8359375 16.0390625 -20.8359375 16.0390625 -22.375 13.625 C-22.89835938 12.83351562 -23.42171875 12.04203125 -23.9609375 11.2265625 C-25 9 -25 9 -24 6 C-22.11401367 5.10864258 -22.11401367 5.10864258 -19.66796875 4.39453125 C-18.78689453 4.13349609 -17.90582031 3.87246094 -16.99804688 3.60351562 C-16.07056641 3.34248047 -15.14308594 3.08144531 -14.1875 2.8125 C-13.27162109 2.53986328 -12.35574219 2.26722656 -11.41210938 1.98632812 C-7.38957922 0.8173627 -4.23071105 0 0 0 Z " fill="#000000" transform="translate(227,128)"/>
<path d="M0 0 C2.29131766 1.63665547 2.91982675 2.77666022 3.875 5.4375 C4 8 4 8 3.0625 10.3125 C0.30674176 12.56721129 -1.64376596 12.51727847 -5.125 12.3125 C-7 12 -7 12 -9 10.9375 C-10.62293894 7.7930558 -10.49416328 5.45914297 -10 2 C-6.65359364 -1.05957153 -4.23600006 -1.5606316 0 0 Z M-6 2 C-6 2.99 -6 3.98 -6 5 C-4.02 5.495 -4.02 5.495 -2 6 C-2.33 4.68 -2.66 3.36 -3 2 C-3.99 2 -4.98 2 -6 2 Z " fill="#000000" transform="translate(454,324)"/>
<path d="M0 0 C0.66 0.33 1.32 0.66 2 1 C1.01 1 0.02 1 -1 1 C-0.67 0.67 -0.34 0.34 0 0 Z " fill="#000000" transform="translate(328,450)"/>
<path d="" fill="#000000" transform="translate(0,0)"/>
<path d="" fill="#000000" transform="translate(0,0)"/>
<path d="" fill="#000000" transform="translate(0,0)"/>
<path d="" fill="#000000" transform="translate(0,0)"/>
<path d="" fill="#000000" transform="translate(0,0)"/>
<path d="" fill="#000000" transform="translate(0,0)"/>
</svg>
